<svg xmlns="http://www.w3.org/2000/svg" width="33.934" height="28.621" viewBox="0 0 33.934 28.621">
  <path id="security_1_" data-name="security (1)" d="M33.934,44.567a3.964,3.964,0,0,1-3.959,3.959H5.161v4.737a11.806,11.806,0,0,0,23.613,0V51.885H10.18a.566.566,0,0,1,0-1.131H29.339a.566.566,0,0,1,.566.566v1.944a12.937,12.937,0,0,1-25.875,0V48.526A3.963,3.963,0,0,1,0,44.567V40.679a.566.566,0,0,1,.566-.566h20.5a.566.566,0,1,1,0,1.131H1.131v3.323A2.831,2.831,0,0,0,3.959,47.4H29.975A2.831,2.831,0,0,0,32.8,44.567a.566.566,0,1,1,1.131,0Zm-21.845-.848a.566.566,0,1,0,0,1.131h.99a.566.566,0,1,0,0-1.131Zm-4.949,0a.566.566,0,1,0,0,1.131h.99a.566.566,0,1,0,0-1.131ZM14.68,56.6a.565.565,0,0,0-.763.241,3.436,3.436,0,1,0,3.05-1.854.566.566,0,1,0,0,1.131,2.3,2.3,0,1,1-2.046,1.244A.566.566,0,0,0,14.68,56.6ZM29.123,43.477a1.06,1.06,0,1,1-1.5,0A1.06,1.06,0,0,1,29.123,43.477Zm1.85-1.05a.565.565,0,0,0,0-.8,3.674,3.674,0,0,0-5.2,0,.566.566,0,1,0,.8.8,2.544,2.544,0,0,1,3.6,0A.566.566,0,0,0,30.973,42.427Zm-6.5-2.1a5.511,5.511,0,0,1,7.8,0,.566.566,0,0,0,.8-.8,6.642,6.642,0,0,0-9.4,0,.566.566,0,0,0,.8.8Z" transform="translate(0 -37.58)" fill="#1d1d1d"/>
</svg>
