<svg xmlns="http://www.w3.org/2000/svg" width="37.875" height="37.875" viewBox="0 0 37.875 37.875">
  <g id="dashboard" transform="translate(-1 -1)">
    <path id="Path_43" data-name="Path 43" d="M35.21,21.483V9.5a4.274,4.274,0,1,0-4.887-4.227H1V29.712H19.358A9.768,9.768,0,1,0,35.21,21.483ZM34.6,2.222a3.054,3.054,0,1,1-3.054,3.054A3.058,3.058,0,0,1,34.6,2.222ZM2.222,6.5H30.5a4.273,4.273,0,0,0,.676,1.335l-3.736,3.736a1.769,1.769,0,0,0-1.571,0l-1.231-1.231a1.816,1.816,0,0,0,.183-.786,1.833,1.833,0,1,0-3.665,0,1.8,1.8,0,0,0,.184.785L18.28,13.4a1.816,1.816,0,0,0-.786-.183,1.833,1.833,0,1,0,1.833,1.833,1.8,1.8,0,0,0-.184-.785L22.206,11.2a1.771,1.771,0,0,0,1.571,0l1.231,1.231a1.816,1.816,0,0,0-.183.786,1.833,1.833,0,0,0,3.665,0,1.8,1.8,0,0,0-.184-.785L32.043,8.7a4.25,4.25,0,0,0,1.945.808V20.65A9.715,9.715,0,0,0,21.77,22.658v-2.72H18.1v7.331h1.4a9.8,9.8,0,0,0-.147,1.222H2.222Zm24.435,6.109a.611.611,0,1,1-.611.611A.612.612,0,0,1,26.657,12.607ZM22.381,9.552a.611.611,0,1,1,.611.611A.612.612,0,0,1,22.381,9.552ZM18.1,15.05a.611.611,0,1,1-.611-.611A.612.612,0,0,1,18.1,15.05Zm11,18.937A4.887,4.887,0,1,1,33.988,29.1,4.893,4.893,0,0,1,29.1,33.988Zm-8.552-9.609a9.7,9.7,0,0,0-.726,1.667h-.5V21.159h1.222Zm7.942-3.8v2.444a6.1,6.1,0,0,0-4.954,8.585l-2.119,1.224A8.523,8.523,0,0,1,28.49,20.58ZM29.1,37.653a8.548,8.548,0,0,1-7.079-3.76l2.128-1.228a6.089,6.089,0,0,0,9.9,0l2.128,1.228A8.548,8.548,0,0,1,29.1,37.653Zm7.684-4.822-2.119-1.224a6.1,6.1,0,0,0-4.954-8.585V20.58a8.523,8.523,0,0,1,7.073,12.252Z" fill="#1d1d1d"/>
    <path id="Path_44" data-name="Path 44" d="M44.665,41a3.665,3.665,0,1,0,3.665,3.665A3.669,3.669,0,0,0,44.665,41Zm0,6.109a2.444,2.444,0,1,1,2.444-2.444A2.446,2.446,0,0,1,44.665,47.109Z" transform="translate(-15.565 -15.565)" fill="#1d1d1d"/>
    <path id="Path_45" data-name="Path 45" d="M5,12H6.222v1.222H5Z" transform="translate(-1.556 -4.28)" fill="#1d1d1d"/>
    <path id="Path_46" data-name="Path 46" d="M9,12h8.552v1.222H9Z" transform="translate(-3.113 -4.28)" fill="#1d1d1d"/>
    <path id="Path_47" data-name="Path 47" d="M5,16H6.222v1.222H5Z" transform="translate(-1.556 -5.837)" fill="#1d1d1d"/>
    <path id="Path_48" data-name="Path 48" d="M9,16h8.552v1.222H9Z" transform="translate(-3.113 -5.837)" fill="#1d1d1d"/>
    <path id="Path_49" data-name="Path 49" d="M5,20H6.222v1.222H5Z" transform="translate(-1.556 -7.393)" fill="#1d1d1d"/>
    <path id="Path_50" data-name="Path 50" d="M9,20h8.552v1.222H9Z" transform="translate(-3.113 -7.393)" fill="#1d1d1d"/>
    <path id="Path_51" data-name="Path 51" d="M5,24H6.222v1.222H5Z" transform="translate(-1.556 -8.95)" fill="#1d1d1d"/>
    <path id="Path_52" data-name="Path 52" d="M9,24h8.552v1.222H9Z" transform="translate(-3.113 -8.95)" fill="#1d1d1d"/>
    <path id="Path_53" data-name="Path 53" d="M5,40.109H8.665V34H5Zm1.222-4.887H7.444v3.665H6.222Z" transform="translate(-1.556 -12.841)" fill="#1d1d1d"/>
    <path id="Path_54" data-name="Path 54" d="M13,40.887h3.665V36H13Zm1.222-3.665h1.222v2.444H14.222Z" transform="translate(-4.669 -13.619)" fill="#1d1d1d"/>
    <path id="Path_55" data-name="Path 55" d="M21,37.774h3.665V28H21Zm1.222-8.552h1.222v7.331H22.222Z" transform="translate(-7.782 -10.506)" fill="#1d1d1d"/>
  </g>
</svg>
