<svg xmlns="http://www.w3.org/2000/svg" width="36.021" height="36.021" viewBox="0 0 36.021 36.021">
  <g id="money" transform="translate(0 -5.949)">
    <g id="Group_63" data-name="Group 63" transform="translate(29.582 27.314)">
      <g id="Group_62" data-name="Group 62">
        <path id="Path_81" data-name="Path 81" d="M421.681,399.377a.7.7,0,0,0-.766-.152.694.694,0,0,0-.122.065.683.683,0,0,0-.194.194.693.693,0,0,0-.065.122.714.714,0,0,0-.04.132.681.681,0,0,0,0,.275.7.7,0,0,0,.3.447.7.7,0,0,0,.122.065.712.712,0,0,0,.132.04.692.692,0,0,0,.137.013.7.7,0,0,0,.5-1.2Z" transform="translate(-420.48 -399.171)" fill="#1d1d1d"/>
      </g>
    </g>
    <g id="Group_65" data-name="Group 65" transform="translate(15.414 13.235)">
      <g id="Group_64" data-name="Group 64">
        <path id="Path_82" data-name="Path 82" d="M225.486,199.059a6.4,6.4,0,1,0,6.4,6.4A6.4,6.4,0,0,0,225.486,199.059Zm0,11.383a4.988,4.988,0,1,1,4.988-4.988A4.994,4.994,0,0,1,225.486,210.442Z" transform="translate(-219.091 -199.059)" fill="#1d1d1d"/>
      </g>
    </g>
    <g id="Group_67" data-name="Group 67" transform="translate(19.68 16.182)">
      <g id="Group_66" data-name="Group 66">
        <path id="Path_83" data-name="Path 83" d="M282.269,243.81v-1.272c.561.044.726.322,1.01.322.38,0,.536-.479.536-.715,0-.6-1.011-.741-1.546-.758v-.218c0-.122-.164-.235-.328-.235-.19,0-.328.113-.328.235v.244a1.775,1.775,0,0,0-1.728,1.769c0,1.115.933,1.49,1.728,1.795v1.412c-.639-.113-.933-.627-1.3-.627-.328,0-.587.436-.587.732,0,.558.846,1.1,1.883,1.133h0v.218c0,.122.138.235.328.235.164,0,.328-.113.328-.235v-.253a1.846,1.846,0,0,0,1.7-1.9C283.971,244.516,283.055,244.107,282.269,243.81Zm-.57-.209c-.328-.139-.553-.3-.553-.549,0-.209.164-.41.553-.488Zm.484,2.78v-1.168c.311.148.527.331.527.619C282.71,246.146,282.477,246.311,282.183,246.381Z" transform="translate(-279.73 -240.935)" fill="#1d1d1d"/>
      </g>
    </g>
    <g id="Group_69" data-name="Group 69" transform="translate(0 5.949)">
      <g id="Group_68" data-name="Group 68">
        <path id="Path_84" data-name="Path 84" d="M33.777,28.2V21.42A13.99,13.99,0,0,0,31.7,14.259a13.815,13.815,0,0,0-3.793-4.093A2.03,2.03,0,0,0,26.7,6.5h-.725l3-5.46A.7.7,0,0,0,28.355,0H24.738a.7.7,0,0,0-.433.149L21.954,1.983,20.741.293A.7.7,0,0,0,20.169,0H15.263a.7.7,0,0,0-.617,1.042l3,5.46H16.92A2.03,2.03,0,0,0,15.7,10.16a13.412,13.412,0,0,0-3.291,3.266,13.812,13.812,0,0,0-2.36,5.654H.7a.7.7,0,0,0-.7.7v3.883a.7.7,0,0,0,.7.7h.7v2.476H.7a.7.7,0,0,0-.7.7v3.883a.7.7,0,0,0,.7.7h.7v3.18a.7.7,0,0,0,.7.7H14.238a.7.7,0,0,0,.7-.7v-.933H32.86a3.16,3.16,0,0,0,.918-6.185ZM16.452,1.407h3.356L21.237,3.4a.7.7,0,0,0,1,.145L24.98,1.407h2.185l-2.8,5.1H19.25Zm.468,6.5H26.7a.624.624,0,0,1,0,1.248H16.92a.624.624,0,0,1,0-1.248ZM1.407,22.963V20.487h10.72v2.476Zm12.127,1.407v2.476H2.814V24.371ZM1.407,30.73V28.254h10.72V30.73Zm12.127,3.883H2.814V32.137h10.72ZM32.86,32.977H14.941V31.434a.7.7,0,0,0-.7-.7h-.7V29.489H27.5a.7.7,0,1,0,0-1.407H14.7a.7.7,0,0,0,.243-.532V23.667a.7.7,0,0,0-.7-.7h-.7v-3.18a.7.7,0,0,0-.7-.7H11.483a12.326,12.326,0,0,1,6.281-8.516h8.089A12.7,12.7,0,0,1,32.37,21.42v7.356a.7.7,0,0,0,.643.7,1.754,1.754,0,0,1-.154,3.5Z" transform="translate(0 0)" fill="#1d1d1d"/>
      </g>
    </g>
  </g>
</svg>
