<svg xmlns="http://www.w3.org/2000/svg" width="31.107" height="42.731" viewBox="0 0 31.107 42.731">
  <g id="filled" transform="translate(-84 -4)">
    <path id="Path_62" data-name="Path 62" d="M142.251,72.577h.261a10.534,10.534,0,1,0-.381-.008l.019,0C142.184,72.575,142.217,72.577,142.251,72.577Zm-8.217-10.513a8.478,8.478,0,1,1,8.478,8.478A8.478,8.478,0,0,1,134.034,62.064Z" transform="translate(-43.93 -43.482)" fill="#1d1d1d"/>
    <path id="Path_63" data-name="Path 63" d="M114.813,36.525,108,29.709a14.575,14.575,0,1,0-14.5,2.54V45.712a1.024,1.024,0,0,0,1.582.846l3.505-2.337,3.505,2.337a1.024,1.024,0,0,0,1.582-.846V39.768l3.951,3.95a1.024,1.024,0,0,0,1.717-.52l.826-4.131,4.131-.826a1.024,1.024,0,0,0,.519-1.717ZM86.035,18.582A12.548,12.548,0,1,1,98.582,31.13,12.562,12.562,0,0,1,86.035,18.582ZM99.147,42.153a1.017,1.017,0,0,0-1.129,0L95.53,43.811V32.843a14.611,14.611,0,0,0,6.1,0V43.812Zm9.952-4.947a1.017,1.017,0,0,0-.8.8l-.586,2.932-4.045-4.045V32.249a14.538,14.538,0,0,0,2.668-1.323l5.693,5.693Z" transform="translate(0)" fill="#1d1d1d"/>
    <path id="Path_64" data-name="Path 64" d="M192.727,111.705a1.024,1.024,0,0,0,1.472-1.07l-.5-2.98,2.152-2.12a1.024,1.024,0,0,0-.562-1.731l-2.987-.45-1.351-2.7a1.024,1.024,0,0,0-1.82,0l-1.351,2.7-2.987.45a1.024,1.024,0,0,0-.562,1.731l2.152,2.12-.5,2.98a1.024,1.024,0,0,0,1.472,1.07l2.681-1.392Zm-4.493-2.743.248-1.493a1.017,1.017,0,0,0-.29-.892l-1.079-1.062,1.5-.226a1.017,1.017,0,0,0,.759-.551l.677-1.354.677,1.354a1.017,1.017,0,0,0,.759.551l1.5.226-1.079,1.063a1.017,1.017,0,0,0-.29.892l.248,1.493-1.344-.7a1.017,1.017,0,0,0-.938,0Z" transform="translate(-91.464 -87.953)" fill="#1d1d1d"/>
  </g>
</svg>
