<svg xmlns="http://www.w3.org/2000/svg" width="28.085" height="35.449" viewBox="0 0 28.085 35.449">
  <g id="surface1" transform="translate(-0.5)">
    <path id="Path_59" data-name="Path 59" d="M19.6.274A.858.858,0,0,0,18.986,0H5.158A4.678,4.678,0,0,0,.5,4.649V30.8a4.678,4.678,0,0,0,4.658,4.65H23.927a4.678,4.678,0,0,0,4.658-4.65V10.035a.922.922,0,0,0-.248-.6Zm.248,2.749L25.7,9.162H21.9a2.039,2.039,0,0,1-2.047-2.038Zm4.076,30.714H5.158A2.966,2.966,0,0,1,2.213,30.8V4.649A2.966,2.966,0,0,1,5.158,1.713H18.139V7.124a3.746,3.746,0,0,0,3.759,3.75h4.975V30.8A2.96,2.96,0,0,1,23.927,33.736Zm0,0" fill="#1d1d1d"/>
    <path id="Path_60" data-name="Path 60" d="M104.122,401.934H90.028a.856.856,0,0,0,0,1.713h14.1a.856.856,0,1,0-.009-1.713Zm0,0" transform="translate(-82.533 -374.106)" fill="#1d1d1d"/>
    <path id="Path_61" data-name="Path 61" d="M119.878,177.121l3.528-3.793v9.35a.856.856,0,1,0,1.713,0v-9.35l3.528,3.793a.854.854,0,0,0,1.25-1.165l-5.018-5.386a.85.85,0,0,0-1.25,0l-5.018,5.386a.853.853,0,0,0,.043,1.207A.874.874,0,0,0,119.878,177.121Zm0,0" transform="translate(-109.72 -158.506)" fill="#1d1d1d"/>
  </g>
</svg>
