<svg xmlns="http://www.w3.org/2000/svg" width="46.021" height="43.052" viewBox="0 0 46.021 43.052">
  <g id="robot" transform="translate(0 1.168)">
    <path id="Path_95" data-name="Path 95" d="M.742,17.389H4.86A11.039,11.039,0,0,0,5.906,19.9L2.991,22.817a.743.743,0,0,0,0,1.05l3.149,3.15a.743.743,0,0,0,1.05,0L10.1,24.1a11.032,11.032,0,0,0,2.514,1.045v4.118a.742.742,0,0,0,.742.742h4.454a.742.742,0,0,0,.742-.742V25.147A11.032,11.032,0,0,0,21.071,24.1l2.915,2.915a.764.764,0,0,0,1.05,0l3.149-3.15a.743.743,0,0,0,0-1.05L25.27,19.9a11.039,11.039,0,0,0,1.046-2.515h4.118a.742.742,0,0,0,.742-.742V12.193a.742.742,0,0,0-.742-.742H26.315A11.043,11.043,0,0,0,25.27,8.936l2.915-2.913a.743.743,0,0,0,0-1.05l-3.149-3.15a.743.743,0,0,0-1.05,0L21.071,4.738a11.063,11.063,0,0,0-2.514-1.045V-.426a.742.742,0,0,0-.742-.742H13.361a.742.742,0,0,0-.742.742V3.692A11.063,11.063,0,0,0,10.1,4.738L7.19,1.823a.764.764,0,0,0-1.05,0L2.991,4.972a.743.743,0,0,0,0,1.05L5.906,8.936A11.042,11.042,0,0,0,4.86,11.451H.742A.742.742,0,0,0,0,12.193v4.454a.742.742,0,0,0,.742.742Zm.742-4.454H5.441a.742.742,0,0,0,.725-.583,9.55,9.55,0,0,1,1.3-3.128.742.742,0,0,0-.1-.926l-2.8-2.8,2.1-2.1,2.8,2.8a.742.742,0,0,0,.926.1A9.565,9.565,0,0,1,13.52,5a.743.743,0,0,0,.583-.725V.317h2.969V4.273A.743.743,0,0,0,17.656,5a9.565,9.565,0,0,1,3.128,1.3.742.742,0,0,0,.926-.1l2.8-2.8,2.1,2.1-2.8,2.8a.743.743,0,0,0-.1.926,9.547,9.547,0,0,1,1.3,3.129.743.743,0,0,0,.725.584h3.957v2.969H25.734a.743.743,0,0,0-.725.583,9.538,9.538,0,0,1-1.3,3.127.743.743,0,0,0,.1.926l2.8,2.8-2.1,2.1-2.8-2.8a.743.743,0,0,0-.926-.1,9.543,9.543,0,0,1-3.127,1.3.742.742,0,0,0-.584.725v3.956H14.1V24.566a.742.742,0,0,0-.584-.725,9.543,9.543,0,0,1-3.127-1.3.743.743,0,0,0-.926.1l-2.8,2.8-2.1-2.1,2.8-2.8a.742.742,0,0,0,.1-.926,9.553,9.553,0,0,1-1.3-3.129.742.742,0,0,0-.725-.583H1.485Zm0,0" fill="#1d1d1d"/>
    <path id="Path_96" data-name="Path 96" d="M135.938,140.708A5.938,5.938,0,1,0,130,134.77,5.938,5.938,0,0,0,135.938,140.708Zm0-10.392a4.454,4.454,0,1,1-4.454,4.454A4.454,4.454,0,0,1,135.938,130.317Zm0,0" transform="translate(-120.351 -120.351)" fill="#1d1d1d"/>
    <path id="Path_97" data-name="Path 97" d="M108.165,115.162A8.165,8.165,0,1,0,100,107,8.165,8.165,0,0,0,108.165,115.162Zm0-14.845a6.68,6.68,0,1,1-6.68,6.68A6.68,6.68,0,0,1,108.165,100.317Zm0,0" transform="translate(-92.577 -92.577)" fill="#1d1d1d"/>
    <path id="Path_98" data-name="Path 98" d="M42.309,292.193v-5.938a.742.742,0,0,0-.742-.742H40.083v-5.938a.742.742,0,0,0-.742-.742H32.66a.742.742,0,0,0-.742.742v5.938H28.206a.742.742,0,0,0-.742.742v5.938H3.711A3.716,3.716,0,0,0,0,295.9v1.485A3.716,3.716,0,0,0,3.711,301.1h38.6a3.716,3.716,0,0,0,3.711-3.711V295.9A3.716,3.716,0,0,0,42.309,292.193Zm-1.485,0h-5.2V287h5.2ZM33.4,280.317h5.2v5.2H33.4ZM28.949,287h5.2v5.2h-5.2Zm15.588,10.392a2.227,2.227,0,0,1-2.227,2.227H3.711a2.227,2.227,0,0,1-2.227-2.227V295.9a2.227,2.227,0,0,1,2.227-2.227h38.6a2.227,2.227,0,0,1,2.227,2.227Zm0,0" transform="translate(0 -259.216)" fill="#1d1d1d"/>
    <path id="Path_99" data-name="Path 99" d="M282.227,488.832a2.227,2.227,0,1,0,2.227,2.227A2.227,2.227,0,0,0,282.227,488.832Zm0,2.969a.742.742,0,1,1,.742-.742A.742.742,0,0,1,282.227,491.8Zm0,0" transform="translate(-259.216 -453.629)" fill="#1d1d1d"/>
    <path id="Path_100" data-name="Path 100" d="M182.227,488.832a2.227,2.227,0,1,0,2.227,2.227A2.227,2.227,0,0,0,182.227,488.832Zm0,2.969a.742.742,0,1,1,.742-.742A.742.742,0,0,1,182.227,491.8Zm0,0" transform="translate(-166.639 -453.629)" fill="#1d1d1d"/>
    <path id="Path_101" data-name="Path 101" d="M382.227,488.832a2.227,2.227,0,1,0,2.227,2.227A2.227,2.227,0,0,0,382.227,488.832Zm0,2.969a.742.742,0,1,1,.742-.742A.742.742,0,0,1,382.227,491.8Zm0,0" transform="translate(-351.794 -453.629)" fill="#1d1d1d"/>
    <path id="Path_102" data-name="Path 102" d="M82.227,488.832a2.227,2.227,0,1,0,2.227,2.227A2.227,2.227,0,0,0,82.227,488.832Zm0,2.969a.742.742,0,1,1,.742-.742A.742.742,0,0,1,82.227,491.8Zm0,0" transform="translate(-74.062 -453.629)" fill="#1d1d1d"/>
    <path id="Path_103" data-name="Path 103" d="M482.227,488.832a2.227,2.227,0,1,0,2.227,2.227A2.227,2.227,0,0,0,482.227,488.832Zm0,2.969a.742.742,0,1,1,.742-.742A.742.742,0,0,1,482.227,491.8Zm0,0" transform="translate(-444.371 -453.629)" fill="#1d1d1d"/>
  </g>
</svg>
